<mxfile host="app.diagrams.net" modified="2021-07-24T08:28:35.195Z" agent="5.0 (Windows NT 10.0; Win64; x64) AppleWebKit/537.36 (KHTML, like Gecko) Chrome/91.0.4472.164 Safari/537.36" etag="AJ7S5Gq_WPVEmoihYa8Z" version="14.9.2" type="github">
  <diagram id="CxArFu6kStChI4KWvWkX" name="第 1 页">
    <mxGraphModel dx="1038" dy="547" grid="1" gridSize="10" guides="1" tooltips="1" connect="1" arrows="1" fold="1" page="1" pageScale="1" pageWidth="827" pageHeight="1169" math="0" shadow="0">
      <root>
        <mxCell id="0" />
        <mxCell id="1" parent="0" />
        <mxCell id="di4qxdhsmoEqdtL-Qxey-18" value="" style="group;spacingTop=2;" vertex="1" connectable="0" parent="1">
          <mxGeometry x="340" y="400" width="240" height="280" as="geometry" />
        </mxCell>
        <mxCell id="di4qxdhsmoEqdtL-Qxey-19" value="&lt;font style=&quot;font-size: 16px&quot;&gt;&lt;b&gt;下载系统&lt;/b&gt;&lt;/font&gt;&lt;br&gt;aria2NG用于展示aria2下载过程" style="rounded=0;whiteSpace=wrap;html=1;fontSize=14;verticalAlign=top;dashed=1;spacingTop=2;spacing=2;spacingBottom=0;" vertex="1" parent="di4qxdhsmoEqdtL-Qxey-18">
          <mxGeometry width="240" height="280" as="geometry" />
        </mxCell>
        <mxCell id="di4qxdhsmoEqdtL-Qxey-20" value="&lt;font&gt;&lt;b&gt;&lt;font style=&quot;font-size: 16px&quot;&gt;aria2NG&lt;/font&gt;&lt;/b&gt;&lt;br&gt;[nginx]&lt;br&gt;管理aria2&lt;br&gt;&lt;/font&gt;" style="rounded=0;whiteSpace=wrap;html=1;verticalAlign=middle;fontSize=14;spacingTop=2;" vertex="1" parent="di4qxdhsmoEqdtL-Qxey-18">
          <mxGeometry x="45" y="60" width="150" height="80" as="geometry" />
        </mxCell>
        <mxCell id="di4qxdhsmoEqdtL-Qxey-21" value="&lt;font style=&quot;font-size: 16px&quot;&gt;&lt;b&gt;aria2&lt;br&gt;&lt;/b&gt;&lt;/font&gt;下载" style="rounded=0;whiteSpace=wrap;html=1;verticalAlign=middle;fontSize=14;spacingTop=2;" vertex="1" parent="di4qxdhsmoEqdtL-Qxey-18">
          <mxGeometry x="45" y="184.99666666666667" width="150" height="80" as="geometry" />
        </mxCell>
        <mxCell id="di4qxdhsmoEqdtL-Qxey-22" value="use" style="edgeStyle=orthogonalEdgeStyle;rounded=0;orthogonalLoop=1;jettySize=auto;html=1;fontSize=14;spacingTop=2;" edge="1" parent="di4qxdhsmoEqdtL-Qxey-18" source="di4qxdhsmoEqdtL-Qxey-20" target="di4qxdhsmoEqdtL-Qxey-21">
          <mxGeometry relative="1" as="geometry" />
        </mxCell>
        <mxCell id="di4qxdhsmoEqdtL-Qxey-25" value="" style="group;spacingTop=2;verticalAlign=middle;fontSize=16;fontStyle=1" vertex="1" connectable="0" parent="1">
          <mxGeometry x="45" y="400" width="240" height="280" as="geometry" />
        </mxCell>
        <mxCell id="di4qxdhsmoEqdtL-Qxey-26" value="&lt;span style=&quot;font-weight: bold ; font-size: 16px&quot;&gt;管理系统&lt;/span&gt;" style="rounded=0;whiteSpace=wrap;html=1;fontSize=14;verticalAlign=top;dashed=1;spacingTop=2;spacing=2;spacingBottom=0;" vertex="1" parent="di4qxdhsmoEqdtL-Qxey-25">
          <mxGeometry width="240" height="280" as="geometry" />
        </mxCell>
        <mxCell id="di4qxdhsmoEqdtL-Qxey-27" value="&lt;font&gt;&lt;span style=&quot;font-size: 16px&quot;&gt;&lt;b&gt;web应用程序&lt;/b&gt;&lt;/span&gt;&lt;br&gt;[java and springboot]&lt;br&gt;查看，新建下载&lt;br&gt;&lt;/font&gt;" style="rounded=0;whiteSpace=wrap;html=1;verticalAlign=middle;fontSize=14;spacingTop=2;" vertex="1" parent="di4qxdhsmoEqdtL-Qxey-25">
          <mxGeometry x="45" y="60" width="150" height="80" as="geometry" />
        </mxCell>
        <mxCell id="di4qxdhsmoEqdtL-Qxey-29" value="use" style="edgeStyle=orthogonalEdgeStyle;rounded=0;orthogonalLoop=1;jettySize=auto;html=1;fontSize=14;spacingTop=2;entryX=0.5;entryY=0;entryDx=0;entryDy=0;entryPerimeter=0;" edge="1" parent="di4qxdhsmoEqdtL-Qxey-25" source="di4qxdhsmoEqdtL-Qxey-27" target="di4qxdhsmoEqdtL-Qxey-31">
          <mxGeometry relative="1" as="geometry">
            <mxPoint x="120" y="184.99666666666667" as="targetPoint" />
          </mxGeometry>
        </mxCell>
        <mxCell id="di4qxdhsmoEqdtL-Qxey-31" value="数据库" style="strokeWidth=2;html=1;shape=mxgraph.flowchart.database;whiteSpace=wrap;fontSize=16;fontStyle=1" vertex="1" parent="di4qxdhsmoEqdtL-Qxey-25">
          <mxGeometry x="45" y="190" width="150" height="70" as="geometry" />
        </mxCell>
        <mxCell id="di4qxdhsmoEqdtL-Qxey-12" value="use" style="edgeStyle=orthogonalEdgeStyle;rounded=0;orthogonalLoop=1;jettySize=auto;html=1;exitX=0.5;exitY=1;exitDx=0;exitDy=0;entryX=0.5;entryY=0;entryDx=0;entryDy=0;fontSize=14;spacingTop=2;" edge="1" parent="1" source="di4qxdhsmoEqdtL-Qxey-13" target="di4qxdhsmoEqdtL-Qxey-27">
          <mxGeometry relative="1" as="geometry">
            <mxPoint x="165" y="400" as="targetPoint" />
          </mxGeometry>
        </mxCell>
        <mxCell id="di4qxdhsmoEqdtL-Qxey-13" value="&lt;font style=&quot;font-size: 16px&quot;&gt;&lt;b&gt;用户&lt;/b&gt;&lt;br&gt;&lt;/font&gt;" style="shape=actor;whiteSpace=wrap;html=1;verticalAlign=middle;spacingTop=2;" vertex="1" parent="1">
          <mxGeometry x="90" y="160" width="150" height="130" as="geometry" />
        </mxCell>
        <mxCell id="di4qxdhsmoEqdtL-Qxey-14" value="use" style="edgeStyle=orthogonalEdgeStyle;rounded=0;orthogonalLoop=1;jettySize=auto;html=1;entryX=0;entryY=0.5;entryDx=0;entryDy=0;fontSize=14;spacingTop=2;exitX=1;exitY=0.5;exitDx=0;exitDy=0;" edge="1" parent="1" source="di4qxdhsmoEqdtL-Qxey-27" target="di4qxdhsmoEqdtL-Qxey-21">
          <mxGeometry relative="1" as="geometry">
            <mxPoint x="240" y="440.03999999999996" as="sourcePoint" />
          </mxGeometry>
        </mxCell>
        <mxCell id="di4qxdhsmoEqdtL-Qxey-33" value="" style="group;spacingTop=2;verticalAlign=middle;fontSize=16;fontStyle=1" vertex="1" connectable="0" parent="1">
          <mxGeometry x="640" y="400" width="240" height="280" as="geometry" />
        </mxCell>
        <mxCell id="di4qxdhsmoEqdtL-Qxey-34" value="&lt;span style=&quot;font-weight: bold ; font-size: 16px&quot;&gt;爬虫系统&lt;/span&gt;" style="rounded=0;whiteSpace=wrap;html=1;fontSize=14;verticalAlign=top;dashed=1;spacingTop=2;spacing=2;spacingBottom=0;" vertex="1" parent="di4qxdhsmoEqdtL-Qxey-33">
          <mxGeometry width="240" height="280" as="geometry" />
        </mxCell>
        <mxCell id="di4qxdhsmoEqdtL-Qxey-35" value="&lt;font&gt;&lt;span style=&quot;font-size: 16px&quot;&gt;&lt;b&gt;爬虫应用程序&lt;/b&gt;&lt;/span&gt;&lt;br&gt;[python]&lt;br&gt;定时抓取网上数据&lt;br&gt;&lt;/font&gt;" style="rounded=0;whiteSpace=wrap;html=1;verticalAlign=middle;fontSize=14;spacingTop=2;" vertex="1" parent="di4qxdhsmoEqdtL-Qxey-33">
          <mxGeometry x="45" y="60" width="150" height="80" as="geometry" />
        </mxCell>
        <mxCell id="di4qxdhsmoEqdtL-Qxey-36" value="use" style="edgeStyle=orthogonalEdgeStyle;rounded=0;orthogonalLoop=1;jettySize=auto;html=1;fontSize=14;spacingTop=2;entryX=0.5;entryY=0;entryDx=0;entryDy=0;entryPerimeter=0;" edge="1" parent="di4qxdhsmoEqdtL-Qxey-33" source="di4qxdhsmoEqdtL-Qxey-35" target="di4qxdhsmoEqdtL-Qxey-37">
          <mxGeometry relative="1" as="geometry">
            <mxPoint x="120" y="184.99666666666667" as="targetPoint" />
          </mxGeometry>
        </mxCell>
        <mxCell id="di4qxdhsmoEqdtL-Qxey-37" value="数据库" style="strokeWidth=2;html=1;shape=mxgraph.flowchart.database;whiteSpace=wrap;fontSize=16;fontStyle=1" vertex="1" parent="di4qxdhsmoEqdtL-Qxey-33">
          <mxGeometry x="45" y="190" width="150" height="70" as="geometry" />
        </mxCell>
        <mxCell id="di4qxdhsmoEqdtL-Qxey-38" value="" style="group;spacingTop=2;verticalAlign=middle;fontSize=16;fontStyle=1" vertex="1" connectable="0" parent="1">
          <mxGeometry x="230" y="770" width="440" height="280" as="geometry" />
        </mxCell>
        <mxCell id="di4qxdhsmoEqdtL-Qxey-39" value="&lt;span style=&quot;font-size: 16px&quot;&gt;&lt;b&gt;存储系统&lt;/b&gt;&lt;/span&gt;" style="rounded=0;whiteSpace=wrap;html=1;fontSize=14;verticalAlign=top;dashed=1;spacingTop=2;spacing=2;spacingBottom=0;" vertex="1" parent="di4qxdhsmoEqdtL-Qxey-38">
          <mxGeometry width="440" height="280" as="geometry" />
        </mxCell>
        <mxCell id="di4qxdhsmoEqdtL-Qxey-46" value="" style="edgeStyle=orthogonalEdgeStyle;rounded=0;orthogonalLoop=1;jettySize=auto;html=1;fontSize=16;" edge="1" parent="di4qxdhsmoEqdtL-Qxey-38" source="di4qxdhsmoEqdtL-Qxey-40" target="di4qxdhsmoEqdtL-Qxey-43">
          <mxGeometry relative="1" as="geometry" />
        </mxCell>
        <mxCell id="di4qxdhsmoEqdtL-Qxey-40" value="&lt;font&gt;&lt;span style=&quot;font-size: 16px&quot;&gt;&lt;b&gt;数据处理应用程序&lt;/b&gt;&lt;/span&gt;&lt;br&gt;[python]&lt;br&gt;处理下载后的内容&lt;br&gt;&lt;/font&gt;" style="rounded=0;whiteSpace=wrap;html=1;verticalAlign=middle;fontSize=14;spacingTop=2;" vertex="1" parent="di4qxdhsmoEqdtL-Qxey-38">
          <mxGeometry x="40" y="60" width="150" height="80" as="geometry" />
        </mxCell>
        <mxCell id="di4qxdhsmoEqdtL-Qxey-41" value="use" style="edgeStyle=orthogonalEdgeStyle;rounded=0;orthogonalLoop=1;jettySize=auto;html=1;fontSize=14;spacingTop=2;entryX=0.5;entryY=0;entryDx=0;entryDy=0;entryPerimeter=0;" edge="1" parent="di4qxdhsmoEqdtL-Qxey-38" source="di4qxdhsmoEqdtL-Qxey-40" target="di4qxdhsmoEqdtL-Qxey-42">
          <mxGeometry relative="1" as="geometry">
            <mxPoint x="220" y="184.99666666666667" as="targetPoint" />
          </mxGeometry>
        </mxCell>
        <mxCell id="di4qxdhsmoEqdtL-Qxey-42" value="数据库" style="strokeWidth=2;html=1;shape=mxgraph.flowchart.database;whiteSpace=wrap;fontSize=16;fontStyle=1" vertex="1" parent="di4qxdhsmoEqdtL-Qxey-38">
          <mxGeometry x="40" y="190" width="150" height="70" as="geometry" />
        </mxCell>
        <mxCell id="di4qxdhsmoEqdtL-Qxey-45" value="" style="edgeStyle=orthogonalEdgeStyle;rounded=0;orthogonalLoop=1;jettySize=auto;html=1;fontSize=16;" edge="1" parent="di4qxdhsmoEqdtL-Qxey-38" source="di4qxdhsmoEqdtL-Qxey-43" target="di4qxdhsmoEqdtL-Qxey-44">
          <mxGeometry relative="1" as="geometry" />
        </mxCell>
        <mxCell id="di4qxdhsmoEqdtL-Qxey-43" value="&lt;font&gt;&lt;span style=&quot;font-size: 16px&quot;&gt;&lt;b&gt;rclone&lt;br&gt;&lt;/b&gt;&lt;/span&gt;保存到网盘&lt;br&gt;&lt;/font&gt;" style="rounded=0;whiteSpace=wrap;html=1;verticalAlign=middle;fontSize=14;spacingTop=2;" vertex="1" parent="di4qxdhsmoEqdtL-Qxey-38">
          <mxGeometry x="260" y="60" width="150" height="80" as="geometry" />
        </mxCell>
        <mxCell id="di4qxdhsmoEqdtL-Qxey-44" value="&lt;font&gt;&lt;span style=&quot;font-size: 16px&quot;&gt;&lt;b&gt;Google&amp;nbsp;Drive&lt;/b&gt;&lt;/span&gt;&lt;br&gt;&lt;/font&gt;" style="rounded=0;whiteSpace=wrap;html=1;verticalAlign=middle;fontSize=14;spacingTop=2;" vertex="1" parent="di4qxdhsmoEqdtL-Qxey-38">
          <mxGeometry x="260" y="185" width="150" height="80" as="geometry" />
        </mxCell>
        <mxCell id="di4qxdhsmoEqdtL-Qxey-48" value="" style="edgeStyle=orthogonalEdgeStyle;rounded=0;orthogonalLoop=1;jettySize=auto;html=1;fontSize=16;entryX=1;entryY=0.5;entryDx=0;entryDy=0;" edge="1" parent="1" source="di4qxdhsmoEqdtL-Qxey-35" target="di4qxdhsmoEqdtL-Qxey-21">
          <mxGeometry relative="1" as="geometry" />
        </mxCell>
        <mxCell id="di4qxdhsmoEqdtL-Qxey-49" value="" style="edgeStyle=orthogonalEdgeStyle;rounded=0;orthogonalLoop=1;jettySize=auto;html=1;fontSize=16;entryX=0.5;entryY=0;entryDx=0;entryDy=0;" edge="1" parent="1" source="di4qxdhsmoEqdtL-Qxey-21" target="di4qxdhsmoEqdtL-Qxey-40">
          <mxGeometry relative="1" as="geometry" />
        </mxCell>
      </root>
    </mxGraphModel>
  </diagram>
</mxfile>
